<svg viewBox="0 0 60.764 60.719" xmlns="http://www.w3.org/2000/svg" width="60.764" height="60.719"><path class="path-fill" fill="#1a1818" d="M17.216 25.455a197.715 197.715 0 0028.263-.623c2.367-.222 2.391-3.95 0-3.726a197.715 197.715 0 01-28.263.623c-2.4-.118-2.391 3.608 0 3.726m.98 8.722a173.412 173.412 0 0026.31-.484c2.367-.222 2.39-3.952 0-3.726a173.412 173.412 0 01-26.31.484c-2.4-.138-2.387 3.589 0 3.726m.101 9.976c9.185-.122 18.37-.281 27.554-.4 2.395-.032 2.4-3.758 0-3.726-9.185.12-18.37.279-27.554.4-2.4.032-2.4 3.758 0 3.726"/></svg>