<svg xmlns="http://www.w3.org/2000/svg" width="42.5" height="42.125" viewBox="0 0 42.5 42.125">
  <g id="Group_85" data-name="Group 85" transform="translate(0 -0.001)">
    <g id="Group_86" data-name="Group 86" transform="translate(0 0.001)">
      <path id="Path_839" data-name="Path 839" d="M42.429,23.412c.46,2.668-1.447,5.352-1.993,8-1.094,3.509-4.569,5.284-6.975,7.806-3.849,2.751-9.183,2.387-13.733,2.864C7.362,42.984-1.432,29.653.193,18.2,0,14.384,2.419,11.243,4.155,8.045,9.433-1.219,21.139-1.206,30.165,1.762c8.184,3.6,12.1,13.076,12.264,21.65m-4.823-1.42c0-27.615-34.19-25.439-35.544.289C2.471,30.011,7.3,39.258,15.728,40.1c10.668,1.972,23.893-6.236,21.879-18.1" transform="translate(0 0)" fill="#fff"/>
    </g>
  </g>
</svg>
