<?xml version="1.0" encoding="utf-8"?>
<!-- Generator: Adobe Illustrator 26.3.1, SVG Export Plug-In . SVG Version: 6.00 Build 0)  -->
<svg version="1.1" id="Layer_1" xmlns="http://www.w3.org/2000/svg" xmlns:xlink="http://www.w3.org/1999/xlink" x="0px" y="0px"
	 viewBox="0 0 220.33 308.67" style="enable-background:new 0 0 220.33 308.67;" xml:space="preserve">
<style type="text/css">
	.st0{fill:#FFFFFF;} 
	.st1{fill:#010101;} 
</style>
<path class="st0" d="M166.93,113.55c-0.9-11.14-53.21-4.49-63.2-4.91c-14.31,0.73-27.71-0.12-42.16,1.49
	c-1.31,0.08-2.56,1.08-2.5,2.5c0.41,9.93,0.82,21.86,1.22,31.79c1.07,6.69-1.25,14.84,2.41,20.7c1.83,1.67,4.56,1.25,6.82,1.19
	c30.99-0.65,61.99,0.51,92.9-1.22c1.39,0.09,2.45-1.22,2.5-2.5C165.59,145.97,166.48,130.18,166.93,113.55z"/>
<path class="st0" d="M197.82,101.46c-1.41-18.86-14.86-33.48-24.89-48.51C159.86,32,147.91,16.23,121.21,26.03
	c-20.05,0.2-39.94,1.04-59.87,3.01c-17.47,0.63-27.21,4.2-29.65,22.34c0.41,45.94-1.05,91.33,0.58,137
	c-0.15,53.53,0.7,50.99,52.77,50.85c0.56,0,5.63-0.54,7.97-0.71c1.81-0.01,0.94-3.5,1.19-4.51c0.28-2.63-10.31-0.41-10.57-1.1
	c-4.77-1.7-10.66,1.35-15.91-0.48c-4.1,0.58-8.91,0.69-13.26,0.05c-13.49-1.42-13.61-5.21-14.52-17.59
	c-0.06-9.56-1.78-18.99-2.18-28.37c0,0,4.1,0.85,7.91-0.27c1.64-0.48,2.13-1.19,2.02-2.57c-2.51-2.51-9.96-1.42-9.96-1.42
	c-1.11-13.28-2.65-25.23-2.96-38.01c0.22-26.27,1.09-52.32,1.22-78.56c-0.97-29.02,5.19-28.11,31.29-31.74
	c11.88-1.38,24.25-1.31,36.06-3.65c2.41,0.03,4.84,1.1,7.35,0.11c0.75-0.29,2.08,0.44,3.37-0.08c0.95-0.61,2.84,0.9,3.66-0.05
	c2.29,1.81,7.9-1.41,8.12,2.3c-2.48,12.79-0.72,25.91-0.55,38.83c0.71,5.2-0.08,11.03,2.92,15.59c8.45,8.24,29.99,9.78,41.5,9.74
	c17.96,0.96,23.52-10.88,24.51,7.08c-3.05,19.2-2.32,39.16-4.78,58.27c-1.04,4.66,1.41,14.36-2.86,17.07
	c-2.28,1.29,3.28,1.87,1.51,5.47c-2.08,48.22,2.97,42.25-44.83,44.1c-1.55,0.77-11.62-1.99-11.94,2.86
	c0.25,2.36-1.02,5.88,1.71,6.82c7.46,1.39,14.42-0.62,20.89-0.67c9.1-1.22,18.07,1.11,26.8-2.8c8.86-3.72,10.17-15.08,9.37-23.28
	c1.03-3.89,1.41-7.86,1.05-11.81c-0.32-3.56,1.71-7.07,0.08-10.61c0.47-4.57,1.03-9.28,0.59-13.94c1.87-9.32,1.87-18.91,2.87-28.45
	c1.08-6.57,0.63-13.43,0.72-20.11C196.6,118.43,198.61,109.98,197.82,101.46z M36.19,222.15c0.12,0.32-0.06,0.34-0.24,0.36
	C36.03,222.39,36.11,222.27,36.19,222.15z M188.77,89.61c-6.82,4.55-16.5,1.54-23.69,3.6c-3.29-1.6-6.88,0.01-10.33-1.09
	c-6.74-1.25-13.32-2.73-19.86-4.9c-11.77-4.75-5.44-38.33-7.58-49.71c1.75-1.56,0.45-7.58,2.68-7.24
	c9.31,0.79,20.69-2.31,26.51,7.43C159.64,41.46,196.59,90.37,188.77,89.61z"/>
<path class="st0" d="M115.42,282.77c-2.64,1.92-6.7,4.48-8.9,0.56c-5.01-4.75-11.02-9.16-15.87-14.27c-5.07-5-8.72-11.32-14.55-15.4
	c-2.6-2.14-3.91-5.72-0.94-8.05c0.96-0.81,5.9,0.73,7.42,0.76c3.69,0.08,11.53,0.22,15.23,0.19c2.51,0.28,0.89-3.29,0.8-7.12
	c-0.12-4.91-1.01-15.77-1.14-16.3c-0.52-2,0.25-3.11,2.2-4.15c3.95-0.68,19.71-0.29,25.53-1.15c4.47,0.46,1.28,9.79,2.24,12.98
	c1.2,5.37,0.08,10.91,0.78,16.3c0.27,1.15,1.62,0.94,3.07,0.91c3.27,0.77,16.08-2.36,15.26,2.55c-0.5,1.79-0.56,3.6-2.72,4.91
	C135.72,265.75,125.37,274.13,115.42,282.77 M90.53,258.18c6.9,7.76,12.06,15.84,21.21,19.97c3.88-0.46,6.82-4.99,10.21-7.03
	c6.16-4.16,10.9-10.47,15.51-16.13c1.17-0.82,0.47-1.98-0.56-2.16c-21.2,1.31-11.77-0.1-13.74-26c0.22-4.16-1.71-4.66-5.32-3.75
	c-2.57,0.27-5.21,1.11-7.68,0.76c-1.92,0.27-7.39-1.88-7.36,0.85c0.25,3.11,0.37,9.22,0.64,12.33c0.09,3.98,3.78,13.24-1.73,13.58
	c-6.08,1.75-12-0.55-18,1.14C84.31,253.98,88.41,256.19,90.53,258.18z"/>
<path class="st1" d="M141.95,144.23c-2.84,0.93-2.91,1.95-2.84,4.46c0.03,2.33-0.16,7.41-0.35,7.91c-0.72,1.95-2.72,0.65-4.91,0.64
	c-1.36,0.46-1.93-0.38-1.81-1.93c-0.23-8.7-0.58-21.97-0.43-30.78c-0.29-6.24,8.07-1.28,11.38-3.32c1.32-0.15,5.69-0.11,6.07-0.16
	c7.82,0.19,11.08-3.66,9.54,7.07c0.82,2.36-16.65,0.95-19.45,1.75c-1.97,0.13-0.53,4.79-0.95,6.24c0.02,2.05,0.44,2.57,2.38,1.92
	c3.41-1.14,6.85-0.29,10.26-0.51c1.37-0.09,2.95,2.92,2.29,4.46C151.58,146.05,145.54,143.21,141.95,144.23z"/>
<path class="st1" d="M108.67,157.72c-0.75,0.15-5.13,0.38-8.07,0.17c-0.08,0.02-0.54-3.6-0.36-5.2c0.12-9.18-0.44-17.63-0.94-27.07
	c-0.43-1.37,0.68-3.07,2.23-3.11c9.74-0.2,20.99,2.07,23.59,13.06C128.03,146.4,119.01,155.89,108.67,157.72 M105.82,141.38
	c0.37,2.91,0.29,6.3,1.11,9.07c3.48,3.87,10.68-2.03,11.99-5.76c4.74-8.01-3.27-16.82-11.65-14.97
	C104.85,133.29,106.06,136.95,105.82,141.38z"/>
<path class="st1" d="M77.33,157.45c-1.38,2.97-6.25,2.28-5.99-1.15c-0.01-1.44-0.26-15.24-0.27-17.75c0.9-3.3-1.31-17.59,3.5-16
	c6.52,0.24,18.23,2.4,17.39,11.14c-1.07,6.09-5.03,11.89-11.92,12.16C74.28,146,80.37,154.6,77.33,157.45 M83.71,128.74
	c-2.92-0.65-7.2-3.14-6.74,1.91c0.46,2.17-1.12,8.05,1.38,9.66C85.59,143.02,91.15,132.53,83.71,128.74z"/>
<path class="st0" d="M64.23,184.22c1.4-0.02,1.08,0.93,0.99,1.5c-1.88,1.08-4.73-0.35-6.88-0.11c-1.2-0.02-2.5-0.5-3.68,0.49
	c-0.69,0.16-1.63-1.77-1-1.85c1.29-2.22,3.63-0.97,5.42-1.58C60.77,182.08,62.47,183.34,64.23,184.22z"/>
<path class="st0" d="M80.27,183.17c5.2,0.91-7.9,4.04-9,0.59C73.4,180.39,76.89,182.98,80.27,183.17z"/>
<path class="st0" d="M110.86,179.57c2.86,0.2,5.37-0.67,7.71,0.82c-2.13,1.6-4.99,3.04-7.61,1.55
	C110.15,181.15,108.91,180.18,110.86,179.57z"/>
<path class="st0" d="M98.26,181.97c4.39,1.75-5.86,1.42-6.87,0.53c-2.09-1.18-1.77-3.62,1.28-2.81
	C94.45,180.41,96.2,181.2,98.26,181.97z"/>
<path class="st0" d="M132.6,181.22c-0.98-2.06-0.69-2.86,1.02-2.81c2.12,0.38,5.05-0.29,6.58,1.42c-0.79,1.54-2.22,0.45-3.36,0.51
	C135.76,181.91,134.15,181.21,132.6,181.22z"/>
<path class="st0" d="M153.58,178.52c1.7-0.75,2.99-0.91,4.65-0.28c-0.2,0.71-0.3,1.47-0.64,2.1
	C155.78,181.35,151.52,182.51,153.58,178.52z"/>
<path class="st0" d="M175.62,177.77c1.92,2.63-1.73,2.45-3.33,2.41c-0.94,0.09-0.9-0.48-0.87-1.1
	C171.01,176.82,174,178.1,175.62,177.77z"/>
</svg>
