<svg xmlns="http://www.w3.org/2000/svg" viewBox="0 0 220.33 308.67" xmlns:v="https://vecta.io/nano"><g fill="#010101"><path d="M166.93 113.55c-.9-11.14-53.21-4.49-63.2-4.91-14.31.73-27.71-.12-42.16 1.49-1.31.08-2.56 1.08-2.5 2.5l1.22 31.79c1.07 6.69-1.25 14.84 2.41 20.7 1.83 1.67 4.56 1.25 6.82 1.19 30.99-.65 61.99.51 92.9-1.22 1.39.09 2.45-1.22 2.5-2.5l2.01-49.04zm30.89-12.09c-1.41-18.86-14.86-33.48-24.89-48.51-13.07-20.95-25.02-36.72-51.72-26.92-20.05.2-39.94 1.04-59.87 3.01-17.47.63-27.21 4.2-29.65 22.34.41 45.94-1.05 91.33.58 137-.15 53.53.7 50.99 52.77 50.85.56 0 5.63-.54 7.97-.71 1.81-.01.94-3.5 1.19-4.51.28-2.63-10.31-.41-10.57-1.1-4.77-1.7-10.66 1.35-15.91-.48-4.1.58-8.91.69-13.26.05-13.49-1.42-13.61-5.21-14.52-17.59-.06-9.56-1.78-18.99-2.18-28.37 0 0 4.1.85 7.91-.27 1.64-.48 2.13-1.19 2.02-2.57-2.51-2.51-9.96-1.42-9.96-1.42-1.11-13.28-2.65-25.23-2.96-38.01l1.22-78.56c-.97-29.02 5.19-28.11 31.29-31.74 11.88-1.38 24.25-1.31 36.06-3.65 2.41.03 4.84 1.1 7.35.11.75-.29 2.08.44 3.37-.08.95-.61 2.84.9 3.66-.05 2.29 1.81 7.9-1.41 8.12 2.3-2.48 12.79-.72 25.91-.55 38.83.71 5.2-.08 11.03 2.92 15.59 8.45 8.24 29.99 9.78 41.5 9.74 17.96.96 23.52-10.88 24.51 7.08-3.05 19.2-2.32 39.16-4.78 58.27-1.04 4.66 1.41 14.36-2.86 17.07-2.28 1.29 3.28 1.87 1.51 5.47-2.08 48.22 2.97 42.25-44.83 44.1-1.55.77-11.62-1.99-11.94 2.86.25 2.36-1.02 5.88 1.71 6.82 7.46 1.39 14.42-.62 20.89-.67 9.1-1.22 18.07 1.11 26.8-2.8 8.86-3.72 10.17-15.08 9.37-23.28 1.03-3.89 1.41-7.86 1.05-11.81-.32-3.56 1.71-7.07.08-10.61.47-4.57 1.03-9.28.59-13.94 1.87-9.32 1.87-18.91 2.87-28.45 1.08-6.57.63-13.43.72-20.11 1.2-8.31 3.21-16.76 2.42-25.28zM36.19 222.15c.12.32-.06.34-.24.36l.24-.36zM188.77 89.61c-6.82 4.55-16.5 1.54-23.69 3.6-3.29-1.6-6.88.01-10.33-1.09-6.74-1.25-13.32-2.73-19.86-4.9-11.77-4.75-5.44-38.33-7.58-49.71 1.75-1.56.45-7.58 2.68-7.24 9.31.79 20.69-2.31 26.51 7.43 3.14 3.76 40.09 52.67 32.27 51.91z"></path><path d="M115.42 282.77c-2.64 1.92-6.7 4.48-8.9.56-5.01-4.75-11.02-9.16-15.87-14.27-5.07-5-8.72-11.32-14.55-15.4-2.6-2.14-3.91-5.72-.94-8.05.96-.81 5.9.73 7.42.76l15.23.19c2.51.28.89-3.29.8-7.12-.12-4.91-1.01-15.77-1.14-16.3-.52-2 .25-3.11 2.2-4.15 3.95-.68 19.71-.29 25.53-1.15 4.47.46 1.28 9.79 2.24 12.98 1.2 5.37.08 10.91.78 16.3.27 1.15 1.62.94 3.07.91 3.27.77 16.08-2.36 15.26 2.55-.5 1.79-.56 3.6-2.72 4.91-8.11 10.26-18.46 18.64-28.41 27.28m-24.89-24.59c6.9 7.76 12.06 15.84 21.21 19.97 3.88-.46 6.82-4.99 10.21-7.03 6.16-4.16 10.9-10.47 15.51-16.13 1.17-.82.47-1.98-.56-2.16-21.2 1.31-11.77-.1-13.74-26 .22-4.16-1.71-4.66-5.32-3.75-2.57.27-5.21 1.11-7.68.76-1.92.27-7.39-1.88-7.36.85.25 3.11.37 9.22.64 12.33.09 3.98 3.78 13.24-1.73 13.58-6.08 1.75-12-.55-18 1.14.6 2.24 4.7 4.45 6.82 6.44z"></path></g><path d="M141.95 144.23c-2.84.93-2.91 1.95-2.84 4.46.03 2.33-.16 7.41-.35 7.91-.72 1.95-2.72.65-4.91.64-1.36.46-1.93-.38-1.81-1.93l-.43-30.78c-.29-6.24 8.07-1.28 11.38-3.32 1.32-.15 5.69-.11 6.07-.16 7.82.19 11.08-3.66 9.54 7.07.82 2.36-16.65.95-19.45 1.75-1.97.13-.53 4.79-.95 6.24.02 2.05.44 2.57 2.38 1.92 3.41-1.14 6.85-.29 10.26-.51 1.37-.09 2.95 2.92 2.29 4.46-1.55 4.07-7.59 1.23-11.18 2.25zm-33.28 13.49c-.75.15-5.13.38-8.07.17-.08.02-.54-3.6-.36-5.2.12-9.18-.44-17.63-.94-27.07-.43-1.37.68-3.07 2.23-3.11 9.74-.2 20.99 2.07 23.59 13.06 2.91 10.83-6.11 20.32-16.45 22.15m-2.85-16.34c.37 2.91.29 6.3 1.11 9.07 3.48 3.87 10.68-2.03 11.99-5.76 4.74-8.01-3.27-16.82-11.65-14.97-2.42 3.57-1.21 7.23-1.45 11.66zm-28.49 16.07c-1.38 2.97-6.25 2.28-5.99-1.15l-.27-17.75c.9-3.3-1.31-17.59 3.5-16 6.52.24 18.23 2.4 17.39 11.14-1.07 6.09-5.03 11.89-11.92 12.16-5.76.15.33 8.75-2.71 11.6m6.38-28.71c-2.92-.65-7.2-3.14-6.74 1.91.46 2.17-1.12 8.05 1.38 9.66 7.24 2.71 12.8-7.78 5.36-11.57z" fill="#fff"></path><path d="M64.23 184.22c1.4-.02 1.08.93.99 1.5-1.88 1.08-4.73-.35-6.88-.11-1.2-.02-2.5-.5-3.68.49-.69.16-1.63-1.77-1-1.85 1.29-2.22 3.63-.97 5.42-1.58 1.69-.59 3.39.67 5.15 1.55zm16.04-1.05c5.2.91-7.9 4.04-9 .59 2.13-3.37 5.62-.78 9-.59zm30.59-3.6c2.86.2 5.37-.67 7.71.82-2.13 1.6-4.99 3.04-7.61 1.55-.81-.79-2.05-1.76-.1-2.37zm-12.6 2.4c4.39 1.75-5.86 1.42-6.87.53-2.09-1.18-1.77-3.62 1.28-2.81l5.59 2.28zm34.34-.75c-.98-2.06-.69-2.86 1.02-2.81 2.12.38 5.05-.29 6.58 1.42-.79 1.54-2.22.45-3.36.51-1.08 1.57-2.69.87-4.24.88zm20.98-2.7c1.7-.75 2.99-.91 4.65-.28-.2.71-.3 1.47-.64 2.1-1.81 1.01-6.07 2.17-4.01-1.82zm22.04-.75c1.92 2.63-1.73 2.45-3.33 2.41-.94.09-.9-.48-.87-1.1-.41-2.26 2.58-.98 4.2-1.31z" fill="#010101"></path></svg>