<svg xmlns="http://www.w3.org/2000/svg" width="120.995" height="120.875" viewBox="0 0 120.995 120.875" class="pause-button" style="display: block;">
  <g id="pause-icon" transform="translate(-231 -497)">  
    <g id="paused-icon" transform="translate(176.55 -112.69)">
      <path id="Path_834" data-name="Path 834" d="M2.89,13.257a169.339,169.339,0,0,0,45.5-1.9c3.811-.676,3.849-12.011,0-11.331a169.338,169.338,0,0,1-45.5,1.9C-.968,1.567-.958,12.9,2.89,13.257" transform="translate(94.453 695.953) rotate(-90)" fill="#1a1818"></path>
      <path id="Path_835" data-name="Path 835" d="M2.719,12.834a131.837,131.837,0,0,0,39.887-1.473c3.589-.676,3.623-12.018,0-11.331A131.838,131.838,0,0,1,2.719,1.5c-3.632-.419-3.619,10.916,0,11.331" transform="translate(121.4 692.971) rotate(-90)" fill="#1a1818"></path>
    </g>
  </g>
</svg>