<svg class="play-button" viewBox="0 0 120.994 120.884" width="120.994" height="120.884" xmlns="http://www.w3.org/2000/svg" style="display: block;">
  <path class="path-fill" fill="#1a1818" d="M93.182 64.378c.77 4.469-2.424 8.965-3.339 13.4-1.832 5.879-7.653 8.851-11.685 13.077-6.449 4.608-15.384 4-23.007 4.8-20.716 1.51-35.446-20.823-32.725-40.007-.324-6.394 3.729-11.656 6.636-17.015 8.842-15.519 28.454-15.5 43.575-10.526 13.709 6.028 20.265 21.906 20.544 36.27"></path>
  <path fill="#fff" d="M39.99 82.966c-.394-13 3.15-26.125 1.2-39.217a4.9 4.9 0 01-.065-2.426c.255-1.372-.672-4.463 1.854-3.367 4.536 1.709 8.062 5.213 12.077 7.825 5.487 4.615 12.726 4.71 18.737 8.192 3.66 1.591 12.248 6.194 3.813 8.134-3.994 1.757-7.284 5.207-11.117 7.425-8.022 5.739-16.164 10.924-24.347 16.331-1.726 1.585-1.777-1.832-2.336-2.874l.186-.024"></path>
</svg>