<svg class="right-arrow-button hover-svg" width="60.481" height="58.388" viewBox="0 0 60.481 58.388" xmlns="http://www.w3.org/2000/svg">
  <path fill="#1a1818" d="M27.296 19.819c-1.107-4.4.524-8.558-.686-12.943-.19-1.674-.01-3.484-.371-5.168C25.978.215 26.26.092 27.727 0c8.064 4.408 14.66 12.055 22.2 17.639 10.679 9.783 15.575 6.739 3.442 19.014-5.721 7.248-12.135 13.878-18.2 20.825-5.448 5.266-4.029-13.939-4.481-16.7-7.766-1.7-21.411.956-29.075.119-.183-3.772-3.813-18.8.455-20.389 6.97-.272 18.213-.417 25.228-.687m7.8 31.654c.12.043 4.182-4.179 5.322-6.717a189.6 189.6 0 0114.33-18.172c-7.876-5.635-14.892-11.692-22.75-17.265.54 3.745-.291 3.768-.278 7.431-.283 1.8 1.875 6.236-1.145 6.1a189.573 189.573 0 00-26.252 1.246 91.935 91.935 0 00.4 13.559c7.569.9 18.67.046 26.194-.38 4.89.447 3.884 10.884 4.182 14.194" class="path-fill"></path>
</svg>